<svg xmlns="http://www.w3.org/2000/svg" viewBox="0 0 292.32 226.79"><defs><style>.cls-1{fill:#575756;fill-rule:evenodd;}</style></defs><title>Asset 2</title><g id="Layer_2" data-name="Layer 2"><g id="Layer_1-2" data-name="Layer 1"><path class="cls-1" d="M228.15,130.4a44.7,44.7,0,0,0-8.68,9.18,48.13,48.13,0,0,1-5.83-11.65q7.15,1,14.51,2.47Zm52.45,87.18c-2.74-1.69-9.7.93-14.42-.26,4.82,1.07,12.19-2.06,14.42.26Zm4.22-1.82c-2.74-1.69-9.7.93-14.42-.26,4.82,1.07,12.19-2.06,14.42.26Zm-17.31-1.07c-2.74-1.69-9.71.93-14.42-.26,4.82,1.07,12.19-2.05,14.42.26ZM239.91,220c-5.63-3.47-19.94,1.92-29.64-.53,9.89,2.2,25.06-4.22,29.64.53Zm-58.76,6.17c9.87-6,34.8,3.56,51.76-.61-17.3,3.73-43.7-7.64-51.76.61Zm89-3.17c-9.83-6.06-34.82,3.35-51.75-.93,17.28,3.84,43.75-7.38,51.75.93ZM104,218.91q1.33-.5,2.63-.9c-.15.22-.31.43-.46.66a15.68,15.68,0,0,1,1.58-1c16.61-4.81,29,.94,44.06,4.63-17.6-2.29-30.63-8.67-51.1.49A55,55,0,0,1,121,219.65a54.13,54.13,0,0,0-14.84,3.65c27.1-8.09,41.92,7.46,75.18,2.48-14.65,1.92-25.34-.67-35.32-3.09a107.34,107.34,0,0,0,11.33.82,73.17,73.17,0,0,0,26,.46c-.21.29-.42.59-.62.91a11.22,11.22,0,0,1,1.2-1l.89-.15-.85.12c12-8.68,39,7.16,57.55-.18-13.87,4.8-32.86-4-46.06-4.38a42.45,42.45,0,0,0,6.8-2.63c-31.59,10.37-79.38-20.1-95.25.9q-1.45.62-3,1.36Zm38.77-1.52c14.1,2.36,29.71,5.34,43.79,3.67a10.63,10.63,0,0,0-3.23,2.86,62,62,0,0,1-20-.53,88.93,88.93,0,0,0,12.6-1.58,75.41,75.41,0,0,1-14.51,1.2c-6.74-1.45-12.75-3.71-18.66-5.63Zm60-.9c5.33-2.45,18.81,1.47,28-.23-9.35,1.52-23.63-3.15-28,.23Zm5.21-2.79c7.78-2.44,27.45,1.5,40.82-.19-13.64,1.51-34.48-3.18-40.82.19Zm-124.42-3A6.85,6.85,0,0,1,87,209L5.68,210.73Zm127.49.14a15.41,15.41,0,0,0,1.63-1.72l79.67,2.45-81.3-.73ZM97.64,222.26c-10.7-7.46-37.9,4.14-56.32-1.12,18.8,4.72,47.61-9.11,56.32,1.12Zm-.44-4.38c-11.83-12.54-18.79,4.9-33.42-4.46,14.44,8.5,20.65-12.46,33.42,4.46Zm106.86-2.17c12.41-4.67,43.78,2.83,65.11-.4-21.76,2.89-55-6-65.11.4Zm.18-.71c9.42-4.92,10.94-9.81,9.45-14.55h.05c-.9-4.32-4.28-5.12-5-11.7l-5.15-4.6-5.49.17,1.72,3.48a29.67,29.67,0,0,0,3-2.83c-6.84,9.59-12.22,9.42-23.4,5.87a32.42,32.42,0,0,0,11.67.91l-2.93-7.13-4.51.14a9.61,9.61,0,0,1-5,5.71q-3.71-1.54-7.43-3.2l-6.08-13.42,5.4-10.06a122.62,122.62,0,0,1,11.06,8.69c-13.66-17.86-13.3-34.88-5.28-47.75A107.83,107.83,0,0,0,151.42,109a249,249,0,0,0-56.14,2.15,20.6,20.6,0,0,0-3.41,6l-.28.75-.74-.44A32.4,32.4,0,0,1,85,113q-7.82,1.55-15.44,3.58c-7.94,11.22.69,34.27,14.81,44.34.92,0,1.84,0,2.75,0,9.56-21.52,48.19-21.16,82.37,2.13-1.74-.29-3.51-.43-5.27-.55l-2.45,4-4.55-10c-3.14-1.63-6.28-3.07-9.4-4.32L154.7,178l-.87,1.4c-13.07-5.89-26.81-11.57-42.28-14.89l5.08-18.67-.7,0h0l-.66,0h0l-.69,0-3.46,18.5q-1.75-.37-3.54-.7l6.74-17.78-.73.05h0l-1.14.1h0l-.26,0h0l-.71.08-4.43,17.43q-1.76-.32-3.54-.59l7.65-16.8-.77.1h0l-.41.06h0l-.76.12-6,16.46q-1.62-.24-3.27-.45l8.87-15.93q-.87.16-1.72.35l-7.4,15.56a134.15,134.15,0,0,0-36.23.56c-.47.07-.92.15-1.34.23l-61.78-27-.32.53,56.66,28.77c-6.12,6.54,21.85,21.63,30.74,43,4.49,1.27,7.51,4.07,10.64,9-.32-14.11-16.29-31.41-34.45-44l-3.91-5.84a11.77,11.77,0,0,0,2.81.78H64l.2,0h.24l.09,0h0l.09,0h0l.07,0h0l.08,0h0l.09,0h0l.08,0h0l.08,0h0l.09,0h0l.09,0h0l.09,0h0l.08,0h0l.09,0h0l.08,0h0l.07,0h0l.07,0h0l.08-.05h0l.08-.05h0l.07,0h0l.07-.05h0l.25-.2h0l.07-.06,0,0,.07-.07.56,3.58.34,2.17c18,12.27,35.09,28.86,37.82,44.32,15.54-18.79,30.88-7.68,61.24-2.79,5,.8,11.12,1.8,16.27,2.2A148.09,148.09,0,0,1,168,214c6.72-2.09,20.87,3.94,29.4,2.67a25.9,25.9,0,0,1-8.26-.95c4.6-1.24,10.62,1.61,15.16-.76ZM154,179.45l.78-1.11.44,1.66-1.22-.55Zm1.36.62-.38-2,2.49-3.52.65,1.85-2.1,4-.66-.3Zm.92.42,2.1-3.37.77,2.19-1,2-1.89-.86Zm2.2,1,.88-1.56.82,2.34-1.71-.78Zm2,.93L162.9,178l2.82,6.75-5.17-2.36Zm5.31,2.43-2.65-7.38,1.57-2.92,6.29,12.64q-2.59-1.15-5.2-2.34Zm-10.94-7.24-4.21-22.31,6.54,18.55-2.33,3.76Zm3-4.92-4.4-17,6,14.4-1.61,2.6Zm2.23-3.59-4.89-13.58,5.92,11.91-1,1.67Zm.2,13-.7-2.69,2.17-3.81.69,1.64-2.16,4.86Zm2.47-5.55-.59-1.65,1.42-2.5.54,1.08-1.36,3.07Zm1.73-3.89-.47-1,4.23-7.43-3.76,8.46Zm-5.1,6-.6-2.3,2-3.15.57,1.37-1.94,4.08Zm2.34-4.93-.48-1.32,1.29-2.07.41.82-1.22,2.57Zm1.65-3.48-.33-.73,2.87-4.6-2.53,5.34Zm-4.83,5.2-.48-1.85L160,171l.45,1.07-1.75,3.31Zm2.26-4.27-.35-1,1.18-1.67.27.55-1.11,2.09Zm1.61-3-.19-.42,1.64-2.33-1.45,2.75Zm35.53,16.21-.83,0-9.13-15,6,15.13-.81,0-7.15-15.52,5.12,15.57-.81,0-6.54-16.18,4.91,16.22-.72,0-7.24-19q4.29,1.25,8.68,3l8.53,15.72Zm-63.7-76.54v0q7.62.05,15.46.57a90.77,90.77,0,0,0-11-3.88q-2.38-.67-4.71-1.18l.21,4.47ZM171.3,29.84l-1.2,0,.1,3.78,1.29.22-.19-4Zm.51,10.73q-.72.83-1.38,1.7l.13,4.94,1.56,0-.31-6.61Zm5.84,124.13-.47-.12.5.89,0-.77Zm.26,5.43q-2.09-1.72-4.21-3.31l.55,21.12,4.58,2-.93-19.76Zm40.37-117.9c-13.51,10.83-18.85,29.23-3.84,48.86-12.14-10.72-25.69-17.61-38.16-20.73q.87-1.2,1.83-2.34a42,42,0,0,1,5.79-5.62l1-.76-1.26-.24q-4.64-.9-9.21-1.64t-9-1.3l-.26,0a30.89,30.89,0,0,1-.93-10.16A29.22,29.22,0,0,1,167,47.88a229.17,229.17,0,0,1,51.29,4.36Zm-86,11.48.13,2.7q4.73,0,9.45.13a91.39,91.39,0,0,0-9.58-2.83ZM119,66.89a24,24,0,0,1-.18-4.69,56.47,56.47,0,0,1,9.85.81v.13l.09,3.33q-4.89.11-9.77.42Zm106.4,21.86A40,40,0,0,0,215.1,100.9l-.1-.13a44.23,44.23,0,0,1-7.75-14.95q8.9,1.13,18.14,2.92ZM185.63,84A96.09,96.09,0,0,1,214,101.51l.57.5c-5.64,11.45-4.94,25.88,6.6,41-13-11.47-27.42-19-40.83-22.62q.82-1,1.7-1.9a46.17,46.17,0,0,1,4.68-4.3l1-.76-1.26-.24q-3.66-.71-7.34-1.34t-7.24-1.14l-.31,0a37.54,37.54,0,0,1-1.25-5.26,32.59,32.59,0,0,1,2.85-19.65l3.87,3.42-3.37-4.41.17-.32.34-.61q5.71,0,11.55.19Zm-70.42,17.94a58,58,0,0,1,14.48.52v.12l.14,5.21q-3.66,0-7.26.18-3.42.14-6.8.37a31.8,31.8,0,0,1-.83-5.84l.28-.57Zm78.22,23.8a107.55,107.55,0,0,1,24.85,15.64c-8,12.83-8.36,29.81,5.26,47.63-14.88-13.15-31.53-21.48-46.75-25.1A43.83,43.83,0,0,1,171.63,148a35.4,35.4,0,0,1,5.21-22.8q.94.79,1.86,1.61l4.95,4.37L179.74,126l-.71-.95q7.1.12,14.41.65Zm-82.29,30.6,1.59-4.26-1.06,5.65q-.28-.69-.53-1.39Zm2,4.74,4.15-15.27a69.2,69.2,0,0,1,13.55,1.29v.15l.59,22.32a164.18,164.18,0,0,0-16.33-4.87c-.71-1.18-1.36-2.39-2-3.61Zm24,6.93-.93-19.69,1.8.49c3,.84,6,1.85,9,3l2.89,10.9A33,33,0,0,0,137.2,168Zm23.21-6.19L158.21,157q4.46,2.37,8.87,5.24a65.73,65.73,0,0,0-6.68-.4ZM3,134.82q7.67-3.44,13.13.9c5-22.32,17.63-43.71,34.15-62.59a243.38,243.38,0,0,1,61-49.58q2-1.68,4-3.27C73,41.78,11.69,88.69,3,134.82Zm26.89,11.07q15.6-7,23.84,12C56.53,105.18,80.44,55.1,125.49,18.61A196.7,196.7,0,0,0,94,38.49q2.67-2.42,5.31-4.73a196.25,196.25,0,0,1,17.56-11.2q2.35-2,4.69-3.89c-46.39,23.61-95.92,70-105.47,120.61q8.33-3.74,14.29.88c5.39-24.87,15-47,28.62-66.23q2.54-2.95,5.17-5.85C47,90,35.5,116.06,29.88,145.89Zm-7-7.68a14.31,14.31,0,0,0-3.85.61,28.91,28.91,0,0,1,3.16,5.65,56.53,56.53,0,0,1,.7-6.26Zm14.72,6.38a15.39,15.39,0,0,0-3.05.35,34.24,34.24,0,0,1,2.6,4.94c.09-1.76.25-3.52.45-5.29Zm148.6-30.86a44.75,44.75,0,0,0-8.7,9.2,48.3,48.3,0,0,1-5.84-11.68q7.17,1,14.55,2.47Zm-59.28-111c-8.08.73-6.79,3.67.26,7.93-12.15-1.56-18.86-7.68-24.34,4-2.22,4.73-15.44-5.9-17.54-1.13C81.28,22.73,64.69,27,55.17,30.77c4.71-2.33,9.52-4.57,12.22-8.55-5.73,2.1-10.47,2.35-15.27,2.71,12-2.28,25.27-5.5,28.53-17.66,1.56-5.83,18.13,6.65,20.58,1.05,5.83-13.3,11.83-7,25.72-5.61Zm1.93-.3-1.2,0,.8,27.89,1.56,0-1.17-27.9Zm47.44,33c-13.54,10.86-18.89,29.3-3.85,49-31-27.43-71.31-29.8-79.22-8.45a32.78,32.78,0,0,1-9.81-9.43,193.55,193.55,0,0,1,28.11-34.61,223,223,0,0,1,64.78,3.51Zm-88.71.3c-3.55,2.31-7.12,4.74-10.69,7.28a13.54,13.54,0,0,1,2.16-5.2q4.23-1.12,8.53-2.07ZM183.45,72a40.05,40.05,0,0,0-10.32,12.18L173,84a44.32,44.32,0,0,1-7.77-15q8.92,1.14,18.19,2.93ZM143.6,67.21A96.35,96.35,0,0,1,172,84.77l.57.5c-5.66,11.48-5,26,6.62,41.09C144.71,95.9,100,93.27,91.23,117c-10.34-6.14-18-19.93-18.51-31.21q1.13-2.36,2.34-4.69,1.92-3.73,4-7.38,4-1,8-1.84a29.68,29.68,0,0,0,5.77,4.54l.74.44.28-.75a18.5,18.5,0,0,1,3.81-6.21,228.16,228.16,0,0,1,45.9-2.67Zm47.58,124.54a17.65,17.65,0,0,0,2.23-.47l-2.87-6.72-1.65,0,2.29,7.14Zm2.31-.5a16.4,16.4,0,0,0,2.65-1l-2.76-5.76-2,.06,2.16,6.72Zm2.74-1.07a19.22,19.22,0,0,0,3.61-2.35l-2.5-3.48-3.18.1,2.07,5.74ZM70,167.36c57.57-3.86,95.76,34.52,142.42,34-43.66-.65-94-42.34-142.42-34ZM88.21,186.7c48.65-3.64,79.79,21.87,119.24,21.51-36.91-.81-78.31-29.69-119.24-21.51Zm-6.72-5.94c52.41-3.73,85.25,26.17,127.73,25.73-39.75-.74-83.63-34-127.73-25.73Zm-8.12-5.37C129.7,171.56,165,205.1,210.7,204.59,168,203.92,120.78,167,73.36,175.38Zm-2.46-4.16c57.57-3.85,93.75,32.21,140.41,31.67-43.65-.65-91.95-40-140.41-31.67Z"/></g></g></svg>